PathFileType	4	(X/Y/Z)	C:/Users/opensim2020/Desktop/walking_exp_matlab/subject03_walking04_straight_02.trc	
DataRate	CameraRate	NumFrames	NumMarkers	Units	OrigDataRate	OrigDataStartFrame	OrigNumFrames	
100.00	100.00	7	51	mm	100.00	1766	259	
Frame#	Time	LFHD			RFHD			LBHD			RBHD			C7			T10			CLAV			STRN			RBAK			LSHO			LUPA			LELB			LFRM			LWRA			LWRB			LFIN			RSHO			RUPA			RELB			RFRM			RWRA			RWRB			RFIN			LASI			RASI			LPSI			RPSI			LTHI			LKNE			LTIB			LANK			LHEE			LTOE			RTHI			RKNE			RTIB			RANK			RHEE			RTOE			*39			*40			*41			*42			*43			*44			*45			*46			*47			*48			*49			*50			
		X1	Y1	Z1	X2	Y2	Z2	X3	Y3	Z3	X4	Y4	Z4	X5	Y5	Z5	X6	Y6	Z6	X7	Y7	Z7	X8	Y8	Z8	X9	Y9	Z9	X10	Y10	Z10	X11	Y11	Z11	X12	Y12	Z12	X13	Y13	Z13	X14	Y14	Z14	X15	Y15	Z15	X16	Y16	Z16	X17	Y17	Z17	X18	Y18	Z18	X19	Y19	Z19	X20	Y20	Z20	X21	Y21	Z21	X22	Y22	Z22	X23	Y23	Z23	X24	Y24	Z24	X25	Y25	Z25	X26	Y26	Z26	X27	Y27	Z27	X28	Y28	Z28	X29	Y29	Z29	X30	Y30	Z30	X31	Y31	Z31	X32	Y32	Z32	X33	Y33	Z33	X34	Y34	Z34	X35	Y35	Z35	X36	Y36	Z36	X37	Y37	Z37	X38	Y38	Z38	X39	Y39	Z39	X40	Y40	Z40	X41	Y41	Z41	X42	Y42	Z42	X43	Y43	Z43	X44	Y44	Z44	X45	Y45	Z45	X46	Y46	Z46	X47	Y47	Z47	X48	Y48	Z48	X49	Y49	Z49	X50	Y50	Z50	X51	Y51	Z51	

227	2.260	1624.44897	-802.37805	1596.27527	1495.29773	-768.29016	1590.87842	1655.65063	-670.69226	1581.25134	1528.12158	-641.95410	1575.14050	1606.78223	-601.29321	1410.24133	1604.74719	-565.11749	1092.25903	1602.67407	-719.99371	1330.78406	1614.50232	-764.29706	1167.24329	1516.02112	-542.51831	1227.78589	1756.45630	-679.24304	1373.57910	1839.64478	-724.78748	1193.75574	1853.78613	-780.35486	1085.68518	1840.31982	-872.72955	996.78571	1795.32019	-949.82788	914.04797	1847.92749	-937.39197	903.27795	1830.81079	-1001.81494	854.03015	1444.01611	-668.14301	1349.37646	1376.57288	-657.11066	1125.17505	1366.21631	-667.27979	1012.39923	1367.84619	-676.57843	875.60858	1406.99158	-700.46545	779.96381	1361.76123	-670.27191	775.09448	1374.86694	-688.96301	703.11841	1735.29199	-726.48602	934.19263	1496.36133	-746.14496	927.25415	1669.25574	-569.56738	953.69495	1521.05737	-582.65753	950.36816	1760.49939	-633.85626	636.83795	1720.07703	-604.93414	461.35464	1714.26099	-512.01868	285.65427	1668.04065	-445.08701	86.66635	1629.41211	-401.01129	57.53972	1653.86670	-592.09119	35.54914	1449.07178	-753.03351	631.70001	1496.18848	-832.47961	472.11871	1497.30652	-853.82507	288.85956	1545.49695	-917.01331	81.38899	1603.77234	-889.74969	42.25778	1552.64429	-1061.92261	78.81087	1587.06006	-723.02295	1670.73474																																	 
228	2.270	1623.16199	-812.18341	1595.19983	1494.11365	-777.80646	1589.53137	1654.58081	-680.68359	1580.46216	1527.25623	-651.52252	1574.15247	1605.82739	-611.03326	1409.24292	1603.93762	-574.60187	1091.49438	1602.23474	-729.60089	1329.88733	1614.33594	-773.90186	1166.27222	1515.29407	-552.35718	1226.47754	1755.95728	-688.42126	1372.59009	1838.90710	-733.32007	1192.75952	1853.13965	-789.69153	1084.85669	1839.20593	-882.54492	996.70514	1794.05237	-960.66541	915.11188	1846.58264	-948.20178	903.91516	1829.31848	-1013.19348	855.57251	1443.36804	-677.73981	1348.12231	1376.21777	-666.10382	1123.91443	1365.73303	-675.88892	1011.07623	1367.55115	-684.47864	874.15302	1406.67065	-707.66608	778.31262	1361.46167	-677.71436	773.66815	1374.63367	-695.73328	701.63751	1735.19360	-735.38037	933.33868	1496.37317	-756.37775	926.20624	1668.03149	-578.94122	952.69684	1519.89722	-592.77924	949.39777	1760.63245	-641.23004	636.72937	1720.86633	-611.57385	461.05963	1714.78943	-515.90814	286.47394	1668.81165	-445.32452	88.83019	1629.82910	-401.59616	60.03299	1653.94092	-592.21539	35.41191	1450.02075	-761.03369	630.02820	1497.07166	-839.80426	470.38913	1498.35010	-863.95526	287.98758	1546.51831	-931.10651	81.49968	1605.20007	-905.40460	42.57609	1551.60840	-1076.65735	80.22814	1585.67542	-732.76050	1669.66577																																	 
229	2.280	1621.80371	-822.05487	1594.17651	1492.82898	-787.23639	1588.39209	1653.66406	-690.48572	1579.89478	1526.30786	-661.24396	1573.22229	1605.18384	-620.60492	1408.53809	1602.65027	-584.74957	1090.25562	1601.67688	-739.23633	1328.99390	1614.12817	-783.74127	1165.51575	1514.56299	-562.10352	1225.52393	1755.40466	-697.65820	1371.75354	1838.23511	-742.15698	1191.70935	1852.34888	-798.62500	1083.87646	1838.48462	-892.25323	996.65155	1792.89673	-970.92645	915.97620	1845.21130	-958.36017	904.19763	1827.92090	-1023.94110	856.72272	1442.66626	-687.57843	1347.04175	1375.78821	-675.42700	1122.76416	1365.43127	-684.76709	1009.76459	1367.26550	-692.60974	872.85504	1406.28186	-715.41095	776.87921	1361.14014	-685.29443	772.45471	1374.27258	-703.06818	700.22119	1735.10999	-744.56482	932.64880	1496.41821	-766.79553	925.33429	1666.64685	-588.57117	951.85724	1518.77002	-602.98602	948.71521	1760.91919	-648.92401	636.54437	1721.27600	-618.16431	460.86703	1715.22583	-520.15344	287.47916	1669.17993	-447.00385	90.75954	1630.14600	-402.15375	62.84401	1654.01318	-592.33905	35.34423	1451.23364	-769.54211	628.73004	1497.87512	-847.79083	468.99152	1499.28748	-873.41132	287.09903	1547.20874	-943.04840	81.39335	1606.44458	-918.00635	42.43112	1550.97095	-1088.67407	80.43227	1584.65015	-743.36188	1669.08264																																	 
230	2.290	1620.42175	-832.01569	1593.38904	1491.54016	-797.06305	1587.33496	1652.54944	-700.46234	1579.42383	1525.30725	-670.88763	1572.49341	1604.26147	-630.17175	1407.68506	1601.61328	-594.70142	1089.53931	1601.03320	-749.03113	1328.33875	1613.81970	-793.68396	1164.91113	1513.75452	-571.96387	1224.54456	1754.75891	-706.93604	1371.07397	1837.41650	-750.81158	1190.72900	1851.47974	-807.33276	1082.92603	1837.54395	-901.31964	996.19873	1791.69250	-980.69293	916.43848	1843.84668	-967.95117	904.17786	1826.50281	-1033.93127	857.39429	1441.90100	-697.54791	1346.06616	1375.37866	-684.72705	1121.66345	1365.04004	-693.77588	1008.72223	1366.94434	-701.02466	871.68134	1405.94507	-723.43872	775.69867	1360.79822	-693.12268	771.28656	1374.04150	-710.30042	699.03961	1734.97571	-754.01166	932.01086	1496.36890	-777.28082	924.68463	1665.59729	-598.16962	951.24976	1517.74634	-613.47644	948.12408	1761.01746	-657.00922	636.40320	1721.84021	-625.44238	460.64505	1715.67615	-524.65149	288.51529	1669.63049	-448.41006	92.66130	1630.54333	-403.05444	65.92757	1654.08875	-592.46686	35.27037	1452.19678	-778.84454	627.80322	1498.44580	-856.52606	467.87454	1500.00684	-882.01416	285.96411	1548.07825	-952.51355	80.74929	1607.73376	-927.56915	41.69389	1550.88452	-1098.03210	79.26178	1582.94946	-752.70557	1667.98035																																	 
231	2.300	1618.97131	-841.97656	1592.74133	1490.16638	-806.59381	1586.48877	1651.36182	-710.48444	1579.10632	1524.19263	-680.75110	1571.95569	1603.30884	-639.86115	1407.11523	1600.89917	-604.45984	1089.22119	1600.32959	-758.86066	1327.80554	1613.35803	-803.68713	1164.47864	1512.85864	-581.99878	1223.82764	1754.00354	-716.34570	1370.56934	1836.52429	-759.39630	1189.80823	1850.52112	-815.77271	1081.93372	1836.54138	-909.97308	995.58704	1790.50671	-989.92664	916.62274	1842.49219	-976.91479	903.80054	1825.19800	-1043.31860	857.70898	1441.12720	-707.24860	1345.33777	1374.93726	-694.19836	1120.88330	1364.69824	-702.93707	1007.66608	1366.76416	-709.64459	870.56421	1405.76660	-731.31860	774.44189	1360.56702	-701.14954	770.28345	1373.77771	-717.90619	697.96027	1734.78345	-763.70239	931.42865	1496.21997	-787.81787	924.12482	1664.51184	-608.37518	950.57172	1516.82971	-623.98511	947.76532	1760.91882	-665.57178	636.25507	1722.39478	-633.07593	460.34766	1716.14050	-529.43646	289.63928	1670.00488	-449.99658	94.77907	1630.86609	-404.05893	69.26017	1654.12646	-592.71613	35.24392	1452.84253	-788.79645	627.29846	1498.86108	-865.82318	467.07434	1500.79456	-890.03430	284.77197	1549.60754	-958.36322	78.46120	1609.14392	-934.17505	40.50621	1551.55920	-1104.76111	76.66410	1581.56445	-762.86401	1667.41541																																	 
232	2.310	1617.51257	-852.00696	1592.26135	1488.83765	-816.58887	1585.81763	1650.05615	-720.60083	1578.81860	1523.11145	-690.46497	1571.59912	1602.12292	-649.86511	1406.56396	1599.78015	-615.19214	1088.29712	1599.47876	-768.77509	1327.38013	1612.85132	-813.92145	1164.18018	1511.88806	-592.16064	1223.13379	1753.19373	-725.90820	1370.21436	1835.51904	-767.85883	1188.94580	1849.47192	-823.91437	1080.89270	1835.47766	-918.20056	994.78839	1789.33411	-998.56122	916.45282	1841.10083	-985.33539	903.12311	1823.91467	-1052.00391	857.56628	1440.12769	-717.53259	1344.63989	1374.48572	-703.92944	1120.09399	1364.35168	-712.40851	1006.87897	1366.54053	-718.53754	869.70337	1405.32227	-740.12817	773.58746	1360.28723	-709.52155	769.52893	1373.46765	-725.95978	697.08832	1734.42114	-773.83484	930.94110	1495.90454	-798.58325	923.78912	1663.57068	-618.88977	950.03271	1516.01233	-634.67102	947.49359	1760.76196	-674.50085	636.10046	1723.04443	-641.13300	460.18362	1716.62402	-534.53693	290.88440	1670.15796	-451.58398	97.78806	1631.23413	-405.06573	73.18309	1654.24194	-592.82758	35.17651	1453.11157	-799.35687	627.10724	1499.16980	-875.47998	466.38309	1501.49243	-897.38379	283.35443	1550.96375	-962.95569	76.49438	1610.58325	-938.13824	38.86029	1553.01306	-1109.24292	72.73413	1580.00073	-772.88745	1666.94446																																	 
233	2.320	1616.07568	-861.97339	1591.82788	1487.41553	-826.41644	1585.26746	1648.85107	-730.50494	1578.71216	1521.82642	-700.36511	1571.25513	1601.05652	-659.85364	1406.23071	1599.08801	-625.74042	1087.75000	1598.60815	-778.85120	1327.17371	1612.22632	-824.25757	1164.00781	1510.98877	-602.33484	1222.63892	1752.33521	-735.46692	1370.07227	1834.53052	-776.36066	1188.23376	1848.37183	-831.71368	1079.81506	1834.38879	-926.05334	993.87573	1788.15662	-1006.70099	915.90173	1839.81799	-993.20935	902.19458	1822.62939	-1060.06860	856.97949	1439.16064	-727.64063	1344.20178	1373.94995	-713.85992	1119.60315	1364.08057	-722.03021	1006.23071	1366.18994	-727.53076	869.05322	1405.01367	-748.74164	772.80957	1359.88757	-718.12860	768.88977	1373.21411	-734.16101	696.34656	1734.06787	-784.16412	930.51740	1495.46960	-809.70587	923.52570	1662.86584	-629.47491	949.77100	1515.30920	-645.59540	947.24994	1760.74597	-683.84558	635.87518	1723.81116	-649.60059	459.91394	1717.19214	-539.94196	292.22919	1670.63489	-453.45370	100.80956	1631.76782	-406.68967	77.19168	1654.30750	-593.02838	35.05341	1453.10229	-810.52625	627.20343	1499.46191	-885.09387	465.73264	1502.17285	-903.92419	281.75845	1552.26477	-965.68359	73.83266	1611.91968	-939.77008	36.96030	1555.19531	-1111.81897	67.66557	1578.53223	-783.05640	1666.61133																																	 
